HIERARCHY
ROOT hip
{
	OFFSET 0.000000 0.000000 0.000000 
	CHANNELS 6 Xposition Yposition Zposition Zrotation Yrotation Xrotation
	JOINT abdomen
	{
		OFFSET 0.000000 20.688101 -0.731520 
		CHANNELS 3 Zrotation Xrotation Yrotation
		JOINT chest
		{
			OFFSET 0.000000 11.704300 -0.487680 
			CHANNELS 3 Zrotation Xrotation Yrotation
			JOINT neck
			{
				OFFSET 0.000000 22.189400 -2.194560 
				CHANNELS 3 Zrotation Xrotation Yrotation
				JOINT head
				{
					OFFSET -0.243840 7.071330 1.219200 
					CHANNELS 3 Zrotation Xrotation Yrotation
					JOINT leftEye
					{
						OFFSET 4.145280 8.046740 8.046720 
						CHANNELS 3 Zrotation Xrotation Yrotation
						End Site
						{
							OFFSET 1.000000 0.000000 0.000000 
						}
					}
					JOINT rightEye
					{
						OFFSET -3.657600 8.046740 8.046720 
						CHANNELS 3 Zrotation Xrotation Yrotation
						End Site
						{
							OFFSET 1.000000 0.000000 0.000000 
						}
					}
				}
			}
			JOINT rCollar
			{
				OFFSET -2.682240 19.263399 -4.876800 
				CHANNELS 3 Zrotation Xrotation Yrotation
				JOINT rShldr
				{
					OFFSET -8.778240 -1.950730 1.463040 
					CHANNELS 3 Zrotation Xrotation Yrotation
					JOINT rForeArm
					{
						OFFSET -28.174200 -1.711500 0.487680 
						CHANNELS 3 Zrotation Xrotation Yrotation
						JOINT rHand
						{
							OFFSET -22.587900 0.773209 7.071360 
							CHANNELS 3 Zrotation Xrotation Yrotation
							JOINT rThumb1
							{
								OFFSET -1.219200 -0.487915 3.413760 
								CHANNELS 3 Zrotation Xrotation Yrotation
								JOINT rThumb2
								{
									OFFSET -3.370350 -0.524490 3.413760 
									CHANNELS 3 Zrotation Xrotation Yrotation
									End Site
									{
										OFFSET -1.782710 -1.182140 1.430490 
									}
								}
							}
							JOINT rIndex1
							{
								OFFSET -7.759470 0.938293 5.608320 
								CHANNELS 3 Zrotation Xrotation Yrotation
								JOINT rIndex2
								{
									OFFSET -2.540570 -0.884171 1.565380 
									CHANNELS 3 Zrotation Xrotation Yrotation
									End Site
									{
										OFFSET -1.625190 -0.234802 1.165020 
									}
								}
							}
							JOINT rMid1
							{
								OFFSET -8.247140 1.182130 3.413760 
								CHANNELS 3 Zrotation Xrotation Yrotation
								JOINT rMid2
								{
									OFFSET -3.101650 -0.590103 1.064700 
									CHANNELS 3 Zrotation Xrotation Yrotation
									End Site
									{
										OFFSET -2.485470 -0.328903 0.837420 
									}
								}
							}
							JOINT rRing1
							{
								OFFSET -8.828220 0.546677 1.516780 
								CHANNELS 3 Zrotation Xrotation Yrotation
								JOINT rRing2
								{
									OFFSET -2.609340 -0.819778 -0.019849 
									CHANNELS 3 Zrotation Xrotation Yrotation
									End Site
									{
										OFFSET -2.338420 -0.294052 0.168128 
									}
								}
							}
							JOINT rPinky1
							{
								OFFSET -8.272020 -0.047791 -0.458400 
								CHANNELS 3 Zrotation Xrotation Yrotation
								JOINT rPinky2
								{
									OFFSET -1.827340 -0.647385 -0.700984 
									CHANNELS 3 Zrotation Xrotation Yrotation
									End Site
									{
										OFFSET -1.692250 -0.517670 -0.607171 
									}
								}
							}
						}
					}
				}
			}
			JOINT lCollar
			{
				OFFSET 2.682240 19.263399 -4.876800 
				CHANNELS 3 Zrotation Xrotation Yrotation
				JOINT lShldr
				{
					OFFSET 8.778240 -1.950730 1.463040 
					CHANNELS 3 Zrotation Xrotation Yrotation
					JOINT lForeArm
					{
						OFFSET 28.174200 -1.711500 0.487680 
						CHANNELS 3 Zrotation Xrotation Yrotation
						JOINT lHand
						{
							OFFSET 22.587900 0.773209 7.071360 
							CHANNELS 3 Zrotation Xrotation Yrotation
							JOINT lThumb1
							{
								OFFSET 1.219200 -0.487915 3.413760 
								CHANNELS 3 Zrotation Xrotation Yrotation
								JOINT lThumb2
								{
									OFFSET 3.370350 -0.524490 3.413760 
									CHANNELS 3 Zrotation Xrotation Yrotation
									End Site
									{
										OFFSET 1.782710 -1.182140 1.430490 
									}
								}
							}
							JOINT lIndex1
							{
								OFFSET 7.759470 0.938293 5.608320 
								CHANNELS 3 Zrotation Xrotation Yrotation
								JOINT lIndex2
								{
									OFFSET 2.540570 -0.884171 1.565380 
									CHANNELS 3 Zrotation Xrotation Yrotation
									End Site
									{
										OFFSET 1.625190 -0.234802 1.165020 
									}
								}
							}
							JOINT lMid1
							{
								OFFSET 8.247140 1.182130 3.413760 
								CHANNELS 3 Zrotation Xrotation Yrotation
								JOINT lMid2
								{
									OFFSET 3.101650 -0.590103 1.064700 
									CHANNELS 3 Zrotation Xrotation Yrotation
									End Site
									{
										OFFSET 2.485470 -0.328903 0.837420 
									}
								}
							}
							JOINT lRing1
							{
								OFFSET 8.828220 0.546677 1.516780 
								CHANNELS 3 Zrotation Xrotation Yrotation
								JOINT lRing2
								{
									OFFSET 2.609340 -0.819778 -0.019849 
									CHANNELS 3 Zrotation Xrotation Yrotation
									End Site
									{
										OFFSET 2.338420 -0.294052 0.168128 
									}
								}
							}
							JOINT lPinky1
							{
								OFFSET 8.272020 -0.047791 -0.458400 
								CHANNELS 3 Zrotation Xrotation Yrotation
								JOINT lPinky2
								{
									OFFSET 1.827340 -0.647385 -0.700984 
									CHANNELS 3 Zrotation Xrotation Yrotation
									End Site
									{
										OFFSET 1.692250 -0.517670 -0.607171 
									}
								}
							}
						}
					}
				}
			}
		}
	}
	JOINT rButtock
	{
		OFFSET -8.778240 4.350840 1.219200 
		CHANNELS 3 Zrotation Xrotation Yrotation
		JOINT rThigh
		{
			OFFSET 0.000000 -1.706870 -2.194560 
			CHANNELS 3 Zrotation Xrotation Yrotation
			JOINT rShin
			{
				OFFSET 0.000000 -36.819901 0.731520 
				CHANNELS 3 Zrotation Xrotation Yrotation
				JOINT rFoot
				{
					OFFSET 0.731520 -45.110401 -5.120640 
					CHANNELS 3 Zrotation Xrotation Yrotation
					End Site
					{
						OFFSET -1.122100 -3.699640 12.103000 
					}
				}
			}
		}
	}
	JOINT lButtock
	{
		OFFSET 8.778240 4.350840 1.219200 
		CHANNELS 3 Zrotation Xrotation Yrotation
		JOINT lThigh
		{
			OFFSET 0.000000 -1.706870 -2.194560 
			CHANNELS 3 Zrotation Xrotation Yrotation
			JOINT lShin
			{
				OFFSET 0.000000 -36.819901 0.731520 
				CHANNELS 3 Zrotation Xrotation Yrotation
				JOINT lFoot
				{
					OFFSET -0.731520 -45.110401 -5.120640 
					CHANNELS 3 Zrotation Xrotation Yrotation
					End Site
					{
						OFFSET 1.122100 -3.699640 12.103000 
					}
				}
			}
		}
	}
}
MOTION
Frames: 7
Frame Time: 0.033434
34.707298 81.424400 -187.182007 0.224700 -2.856600 4.138300 -4.482250 -1.112690 -2.615180 -1.858760 3.808780 -0.814577 -4.389220 6.251230 -2.903090 15.511100 -25.185400 -1.650500 -0.000000 0.000000 0.000000 -0.000000 0.000000 0.000000 -0.000000 -0.000000 0.000000 82.092400 16.863100 3.287720 -11.010600 -4.778570 19.710899 -0.010032 2.858580 0.402085 0.000000 -0.000000 0.000000 0.000000 -0.000000 0.000000 0.000000 -0.000000 0.000000 7.730910 5.474880 0.417314 0.000000 -0.000000 0.000000 2.905540 0.965183 0.102902 0.000000 -0.000000 0.000000 10.278600 0.731801 0.025912 0.000000 -0.000000 0.000000 2.221670 -0.733487 -0.208920 -0.000000 -0.000000 0.000000 -77.694099 17.005100 -6.696010 9.152640 -3.642090 -16.221701 0.008041 2.559530 -0.359960 0.000000 -0.000000 -0.000000 0.000000 -0.000000 -0.000000 0.000000 -0.000000 -0.000000 -7.730910 5.474880 -0.417314 0.000000 -0.000000 -0.000000 -2.905540 0.965183 -0.102902 0.000000 -0.000000 -0.000000 -10.278600 0.731801 -0.025912 0.000000 -0.000000 -0.000000 -2.221670 -0.733487 0.208920 -0.000000 0.000000 -0.000000 -1.072800 -36.111790 2.480420 -0.131286 28.430599 1.030630 -1.421640 -2.359780 -5.138130 0.000000 -4.299999 0.000000 -1.032060 2.030598 0.916589 -0.114804 10.787500 -1.115530 0.529539 -6.174740 -1.214080 
34.013500 81.648201 -184.645996 -0.046200 -2.303100 4.046800 -3.824320 -1.630530 -2.955710 -1.967450 3.939720 -0.911427 -4.479690 6.188870 -2.910280 15.202500 -24.482700 -1.796320 -0.000000 0.000000 0.000000 -0.000000 0.000000 0.000000 0.000000 -0.000000 0.000000 82.220100 17.262800 3.128600 -11.171100 -4.884100 20.016800 -0.007883 2.534180 0.356390 -0.000000 0.000000 0.000000 -0.000000 0.000000 0.000000 -0.000000 0.000000 0.000000 7.730910 5.474880 0.417314 -0.000000 0.000000 0.000000 2.905540 0.965183 0.102902 -0.000000 0.000000 0.000000 10.278600 0.731801 0.025912 -0.000000 0.000000 0.000000 2.221670 -0.733487 -0.208920 0.000000 -0.000000 0.000000 -78.076202 15.777400 -5.528270 9.020140 -3.566770 -15.976200 0.012112 3.140600 -0.441830 -0.000000 -0.000000 -0.000000 -0.000000 -0.000000 -0.000000 -0.000000 -0.000000 -0.000000 -7.730910 5.474880 -0.417314 -0.000000 -0.000000 -0.000000 -2.905540 0.965183 -0.102902 -0.000000 -0.000000 -0.000000 -10.278600 0.731801 -0.025912 -0.000000 -0.000000 -0.000000 -2.221670 -0.733487 0.208920 -0.000000 0.000000 -0.000000 -0.140361 -34.445992 2.864710 -0.140498 28.946400 0.993215 -1.583800 -3.143610 -5.805220 0.000000 -4.299999 0.000000 0.300480 1.873398 0.620149 -0.096124 13.345600 -1.094740 0.596470 -2.742620 -1.129960 
33.356602 81.785500 -182.171005 -0.218400 -1.907200 3.965800 -3.048590 -2.179520 -3.139370 -2.038360 4.124710 -0.935188 -4.542920 6.019660 -2.952290 14.834100 -23.446501 -2.065900 -0.000000 0.000000 0.000000 -0.000000 0.000000 0.000000 -0.000000 -0.000000 0.000000 82.237099 17.517500 3.111260 -11.196700 -4.901810 20.065300 -0.007356 2.448030 0.344259 0.000000 0.000000 0.000000 0.000000 0.000000 0.000000 0.000000 0.000000 0.000000 7.730910 5.474880 0.417314 0.000000 0.000000 0.000000 2.905540 0.965183 0.102902 0.000000 0.000000 0.000000 10.278600 0.731801 0.025912 0.000000 0.000000 0.000000 2.221670 -0.733487 -0.208920 -0.000000 -0.000000 0.000000 -78.428001 14.657700 -4.352840 9.072200 -3.596320 -16.072701 0.014083 3.386080 -0.476443 0.000000 -0.000000 -0.000000 0.000000 -0.000000 -0.000000 0.000000 -0.000000 -0.000000 -7.730910 5.474880 -0.417314 0.000000 -0.000000 -0.000000 -2.905540 0.965183 -0.102902 0.000000 -0.000000 -0.000000 -10.278600 0.731801 -0.025912 0.000000 -0.000000 -0.000000 -2.221670 -0.733487 0.208920 -0.000000 0.000000 -0.000000 0.762685 -32.847496 3.035520 -0.158504 29.382099 0.869057 -1.692840 -3.944620 -6.217480 0.000000 -4.299999 0.000000 2.099870 -0.733401 0.640080 -0.113550 20.096100 -1.079840 0.673226 0.011157 -1.353040 
32.697899 81.913696 -179.703995 -0.475800 -1.508100 3.694400 -2.260270 -2.487310 -3.134440 -2.168990 4.288910 -0.918413 -4.531770 5.861120 -3.035180 14.514900 -22.553400 -2.397690 -0.000000 0.000000 0.000000 -0.000000 0.000000 0.000000 -0.000000 -0.000000 -0.000000 82.093903 18.052999 3.303640 -11.185700 -4.893800 20.044800 -0.006916 2.373760 0.333803 0.000000 -0.000000 0.000000 0.000000 -0.000000 0.000000 0.000000 -0.000000 0.000000 7.730910 5.474880 0.417314 0.000000 -0.000000 0.000000 2.905540 0.965183 0.102902 0.000000 -0.000000 0.000000 10.278600 0.731801 0.025912 0.000000 -0.000000 0.000000 2.221670 -0.733487 -0.208920 -0.000000 -0.000000 -0.000000 -78.612602 14.235700 -3.341660 9.347240 -3.753970 -16.583000 0.010455 2.918100 -0.410470 0.000000 0.000000 -0.000000 0.000000 0.000000 -0.000000 0.000000 0.000000 -0.000000 -7.730910 5.474880 -0.417314 0.000000 0.000000 -0.000000 -2.905540 0.965183 -0.102902 0.000000 0.000000 -0.000000 -10.278600 0.731801 -0.025912 0.000000 0.000000 -0.000000 -2.221670 -0.733487 0.208920 -0.000000 0.000000 -0.000000 1.582840 -30.823595 2.869650 -0.167654 29.460100 0.785738 -1.835400 -5.166750 -6.456060 0.000000 -4.299999 0.000000 4.111800 -3.111701 1.132640 -0.078091 26.604799 -1.078070 0.798127 4.083690 -2.033300 
32.016300 81.986000 -177.406006 -0.907700 -1.034700 3.374300 -1.263550 -2.578460 -3.051140 -2.354440 4.354790 -0.888264 -4.574650 5.835280 -3.159590 14.451100 -22.130899 -2.701850 -0.000000 0.000000 0.000000 -0.000000 0.000000 0.000000 0.000000 -0.000000 -0.000000 81.818802 18.658199 3.675880 -11.163100 -4.878700 20.001400 -0.006909 2.372670 0.333649 0.000000 -0.000000 0.000000 0.000000 -0.000000 0.000000 0.000000 -0.000000 0.000000 7.730910 5.474880 0.417314 0.000000 -0.000000 0.000000 2.905540 0.965183 0.102902 0.000000 -0.000000 0.000000 10.278600 0.731801 0.025912 0.000000 -0.000000 0.000000 2.221670 -0.733487 -0.208920 0.000000 -0.000000 -0.000000 -78.558701 14.189700 -2.688010 9.642210 -3.926750 -17.132299 0.005567 2.129960 -0.299485 0.000000 0.000000 -0.000000 0.000000 0.000000 -0.000000 0.000000 0.000000 -0.000000 -7.730910 5.474880 -0.417314 0.000000 0.000000 -0.000000 -2.905540 0.965183 -0.102902 0.000000 0.000000 -0.000000 -10.278600 0.731801 -0.025912 0.000000 0.000000 -0.000000 -2.221670 -0.733487 0.208920 -0.000000 0.000000 -0.000000 2.502430 -28.713295 2.419640 -0.168771 29.288000 0.731586 -2.004760 -6.617360 -6.624950 0.000000 -4.299999 0.000000 6.489779 -6.495780 1.425270 0.084205 34.311100 -1.125910 0.998022 8.659540 -2.815830 
31.378000 82.015503 -175.294006 -1.420500 -0.380400 3.095100 -0.189174 -2.522460 -2.954340 -2.576940 4.356820 -0.850925 -4.734480 5.933670 -3.356910 14.743600 -22.096800 -3.024100 -0.000000 0.000000 0.000000 -0.000000 0.000000 0.000000 -0.000000 -0.000000 -0.000000 81.498497 18.932699 4.120820 -11.213700 -4.912220 20.098101 -0.007442 2.462390 0.346281 0.000000 -0.000000 0.000000 0.000000 -0.000000 0.000000 0.000000 -0.000000 0.000000 7.730910 5.474880 0.417314 0.000000 -0.000000 0.000000 2.905540 0.965183 0.102902 0.000000 -0.000000 0.000000 10.278600 0.731801 0.025912 0.000000 -0.000000 0.000000 2.221670 -0.733487 -0.208920 -0.000000 -0.000000 -0.000000 -78.294403 14.359600 -2.499630 9.884700 -4.071610 -17.585400 0.002792 1.508470 -0.212051 0.000000 0.000000 -0.000000 0.000000 0.000000 -0.000000 0.000000 0.000000 -0.000000 -7.730910 5.474880 -0.417314 0.000000 0.000000 -0.000000 -2.905540 0.965183 -0.102902 0.000000 0.000000 -0.000000 -10.278600 0.731801 -0.025912 0.000000 0.000000 -0.000000 -2.221670 -0.733487 0.208920 -0.000000 0.000000 -0.000000 3.398050 -26.690302 1.799450 -0.167572 28.936800 0.680285 -2.153300 -7.854900 -6.791330 0.000000 -4.299999 0.000000 8.832580 -10.860601 1.087950 0.274244 42.607399 -1.223670 1.195770 13.690400 -2.848950 
30.775999 82.001999 -173.335007 -2.173200 0.457000 2.871700 1.147680 -2.402710 -2.784160 -2.857700 4.336420 -0.792555 -4.855990 6.042860 -3.657150 15.002900 -22.217699 -3.548430 -0.000000 0.000000 0.000000 -0.000000 0.000000 0.000000 0.000000 0.000000 -0.000000 81.047897 18.993500 4.715970 -11.290800 -4.963500 20.245399 -0.009177 2.734110 0.384549 -0.000000 0.000000 -0.000000 -0.000000 0.000000 -0.000000 -0.000000 0.000000 -0.000000 7.730910 5.474880 0.417314 -0.000000 0.000000 -0.000000 2.905540 0.965183 0.102902 -0.000000 0.000000 -0.000000 10.278600 0.731801 0.025912 -0.000000 0.000000 -0.000000 2.221670 -0.733487 -0.208920 0.000000 0.000000 -0.000000 -77.971497 14.673500 -2.606200 10.154500 -4.235830 -18.091600 0.001418 1.075330 -0.151146 -0.000000 -0.000000 0.000000 -0.000000 -0.000000 0.000000 -0.000000 -0.000000 0.000000 -7.730910 5.474880 -0.417314 -0.000000 -0.000000 0.000000 -2.905540 0.965183 -0.102902 -0.000000 -0.000000 0.000000 -10.278600 0.731801 -0.025912 -0.000000 -0.000000 0.000000 -2.221670 -0.733487 0.208920 -0.000000 0.000000 -0.000000 4.481150 -24.742401 1.165630 -0.163512 28.398001 0.638274 -2.322040 -8.945000 -7.082270 0.000000 -4.299999 0.000000 10.930071 -15.863170 0.180620 0.520127 50.455898 -1.364420 0.839454 17.918100 -0.865880 
